<svg id="Layer_1" data-name="Layer 1" xmlns="http://www.w3.org/2000/svg" viewBox="0 0 595.28 179.89"><defs><style>.cls-1{fill:#231f20;}</style></defs><path class="cls-1" d="M61.86,39.85a26.71,26.71,0,0,1,9.38,1.5,21.31,21.31,0,0,1,6.65,3.82,16.37,16.37,0,0,1,4,5.15,13.6,13.6,0,0,1,1.46,5.46,2,2,0,0,1-.45,1.28,1.82,1.82,0,0,1-1.46.54H79.62a2.55,2.55,0,0,1-1.14-.36,1.86,1.86,0,0,1-.87-1.46,10.44,10.44,0,0,0-4.78-7.51q-4.23-3-11-3a27.76,27.76,0,0,0-6.19.64,13.75,13.75,0,0,0-4.83,2,9.48,9.48,0,0,0-4.28,8.29,9.5,9.5,0,0,0,1,4.64,10,10,0,0,0,3.32,3.46,29.09,29.09,0,0,0,5.74,2.92c2.3.91,5.1,1.88,8.38,2.91s6.35,2.17,8.88,3.23A27.17,27.17,0,0,1,80.21,77a13,13,0,0,1,3.73,4.65A15,15,0,0,1,85.17,88q0,8.3-6.1,12.84t-16.76,4.55A31.38,31.38,0,0,1,52.48,104a24,24,0,0,1-7.24-3.69,16.41,16.41,0,0,1-4.56-5.23A13.49,13.49,0,0,1,39,89a1.72,1.72,0,0,1,.55-1.27,1.82,1.82,0,0,1,1.36-.55h1.82a1.66,1.66,0,0,1,1.37.55A3.18,3.18,0,0,1,44.74,89a11.23,11.23,0,0,0,1.36,3.87,10.91,10.91,0,0,0,3.24,3.51A18.55,18.55,0,0,0,54.66,99a25.67,25.67,0,0,0,7.65,1q8.93,0,13-3.23A10.52,10.52,0,0,0,79.43,88a8.43,8.43,0,0,0-1.18-4.6,11,11,0,0,0-3.64-3.37,35.53,35.53,0,0,0-6.19-2.87q-3.73-1.37-8.84-3A74.43,74.43,0,0,1,51.16,71a23.47,23.47,0,0,1-5.83-3.65,12.56,12.56,0,0,1-3.42-4.73,17.17,17.17,0,0,1-1.09-6.42,15,15,0,0,1,1.41-6.47,14.86,14.86,0,0,1,4.06-5.19,19.67,19.67,0,0,1,6.55-3.46A29.15,29.15,0,0,1,61.86,39.85Z"/><path class="cls-1" d="M152.75,88.57H120.51l-5.65,14.57a3.84,3.84,0,0,1-.64.86,1.72,1.72,0,0,1-1.36.5H111a1.86,1.86,0,0,1-1.83-1.82,3,3,0,0,1,.19-1l23-59.1a3.13,3.13,0,0,1,.95-1.37,2.76,2.76,0,0,1,1.69-.45h3.09a2.76,2.76,0,0,1,1.69.45,3.22,3.22,0,0,1,1,1.37l23,59.1a3.21,3.21,0,0,1,.18,1,1.86,1.86,0,0,1-1.82,1.82H160.4A1.73,1.73,0,0,1,159,104a3.84,3.84,0,0,1-.64-.86ZM122.69,83.1h27.87L136.63,47.22Z"/><path class="cls-1" d="M219,89.2a2.86,2.86,0,0,1-2.82-1.82l-17.4-34.24V102.5a1.76,1.76,0,0,1-2,2h-1.64c-1.4,0-2.09-.66-2.09-2V42.85a1.84,1.84,0,0,1,2.09-2.09h2.28a1.71,1.71,0,0,1,1.32.45,7,7,0,0,1,.59.73L220,82.19l20.77-40.25a7,7,0,0,1,.59-.73,1.7,1.7,0,0,1,1.32-.45h2.19a1.85,1.85,0,0,1,2.09,2.09V102.5c0,1.34-.7,2-2.09,2h-1.64a1.77,1.77,0,0,1-2-2V53.14L223.78,87.38A2.86,2.86,0,0,1,221,89.2Z"/><path class="cls-1" d="M300.91,39.85a26.67,26.67,0,0,1,9.38,1.5,21.09,21.09,0,0,1,6.65,3.82,16.41,16.41,0,0,1,4,5.15,13.6,13.6,0,0,1,1.46,5.46,2,2,0,0,1-.46,1.28,1.8,1.8,0,0,1-1.46.54h-1.82a2.62,2.62,0,0,1-1.14-.36,1.88,1.88,0,0,1-.86-1.46,10.5,10.5,0,0,0-4.78-7.51q-4.23-3-11-3a27.82,27.82,0,0,0-6.19.64,13.78,13.78,0,0,0-4.82,2,9.45,9.45,0,0,0-4.29,8.29,9.5,9.5,0,0,0,1.05,4.64A10.17,10.17,0,0,0,290,64.34a29,29,0,0,0,5.73,2.92q3.46,1.36,8.38,2.91,5.1,1.64,8.88,3.23a27,27,0,0,1,6.28,3.6A13,13,0,0,1,323,81.65,15,15,0,0,1,324.23,88q0,8.3-6.1,12.84t-16.76,4.55a31.49,31.49,0,0,1-9.84-1.41,24.26,24.26,0,0,1-7.24-3.69,16.38,16.38,0,0,1-4.55-5.23A13.49,13.49,0,0,1,278.06,89a1.75,1.75,0,0,1,.54-1.27A1.85,1.85,0,0,1,280,87.2h1.82a1.67,1.67,0,0,1,1.37.55,3.16,3.16,0,0,1,.63,1.27,11.26,11.26,0,0,0,1.37,3.87,11,11,0,0,0,3.23,3.51A18.62,18.62,0,0,0,293.72,99a25.58,25.58,0,0,0,7.65,1q8.92,0,13-3.23a10.52,10.52,0,0,0,4.1-8.7,8.52,8.52,0,0,0-1.18-4.6,11,11,0,0,0-3.65-3.37,35.19,35.19,0,0,0-6.19-2.87q-3.74-1.37-8.83-3A75.39,75.39,0,0,1,290.21,71a23.4,23.4,0,0,1-5.82-3.65A12.56,12.56,0,0,1,281,62.66a17,17,0,0,1-1.09-6.42,14.86,14.86,0,0,1,5.46-11.66,19.72,19.72,0,0,1,6.56-3.46A29.08,29.08,0,0,1,300.91,39.85Z"/><path class="cls-1" d="M391.8,88.57H359.56l-5.64,14.57a4.58,4.58,0,0,1-.64.86,1.75,1.75,0,0,1-1.37.5h-1.82a1.86,1.86,0,0,1-1.82-1.82,3.21,3.21,0,0,1,.18-1l23-59.1a3.06,3.06,0,0,1,1-1.37,2.73,2.73,0,0,1,1.68-.45h3.1a2.76,2.76,0,0,1,1.69.45,3.13,3.13,0,0,1,.95,1.37l23,59.1a3.21,3.21,0,0,1,.18,1,1.84,1.84,0,0,1-1.82,1.82h-1.82a1.71,1.71,0,0,1-1.36-.5,3.84,3.84,0,0,1-.64-.86ZM361.75,83.1h27.87L375.68,47.22Z"/><path class="cls-1" d="M455.28,40.76q9.56,0,15.25,4.55t5.69,13.84q0,7.38-3.6,11.7a18.07,18.07,0,0,1-10.15,5.88l14.66,25a2.3,2.3,0,0,1,.28,1,1.86,1.86,0,0,1-1.83,1.82h-1.09a3,3,0,0,1-2.23-.72A8.56,8.56,0,0,1,471,102L456.55,77.55H437.79v25c0,1.34-.7,2-2.09,2h-1.64a1.77,1.77,0,0,1-2-2V42.85c0-1.4.67-2.09,2-2.09ZM437.79,72.08h17q15.66,0,15.66-12.93T454.82,46.22h-17Z"/><path class="cls-1" d="M545.71,88.57H513.47l-5.65,14.57a4.07,4.07,0,0,1-.63.86,1.75,1.75,0,0,1-1.37.5H504a1.84,1.84,0,0,1-1.82-1.82,3.21,3.21,0,0,1,.18-1l23-59.1a3.06,3.06,0,0,1,1-1.37,2.71,2.71,0,0,1,1.68-.45h3.1a2.71,2.71,0,0,1,1.68.45,3.14,3.14,0,0,1,1,1.37l23,59.1a3.21,3.21,0,0,1,.18,1,1.86,1.86,0,0,1-1.82,1.82h-1.82A1.73,1.73,0,0,1,552,104a4.18,4.18,0,0,1-.64-.86ZM515.65,83.1h27.87L529.59,47.22Z"/><rect class="cls-1" x="364.41" y="27.43" width="23.09" height="4.87"/><circle class="cls-1" cx="219.86" cy="115.39" r="4.81"/><path class="cls-1" d="M79.47,149.11a13.7,13.7,0,0,1-1.57.86,11.22,11.22,0,0,1-2.32.8,12.64,12.64,0,0,1-2.93.32,12.39,12.39,0,0,1-4.81-1,10.83,10.83,0,0,1-6-6.22,12.47,12.47,0,0,1-.8-4.46,13.54,13.54,0,0,1,.83-4.79,11.25,11.25,0,0,1,2.39-3.8,10.84,10.84,0,0,1,3.64-2.51,11.53,11.53,0,0,1,4.59-.9,12.1,12.1,0,0,1,3.78.56,14.1,14.1,0,0,1,2.91,1.3l-1.25,2.94A12.9,12.9,0,0,0,75.6,131a7.8,7.8,0,0,0-3-.57,7.72,7.72,0,0,0-3.2.67A8.25,8.25,0,0,0,66.74,133a9,9,0,0,0-1.81,2.81,9.08,9.08,0,0,0-.66,3.49,10.11,10.11,0,0,0,.59,3.47,8.33,8.33,0,0,0,1.7,2.81,7.83,7.83,0,0,0,2.67,1.88,9,9,0,0,0,3.52.67,8.28,8.28,0,0,0,3.13-.55,9.76,9.76,0,0,0,2.27-1.21Z"/><path class="cls-1" d="M83.24,139.29a11.4,11.4,0,0,1,.91-4.54,12.11,12.11,0,0,1,6.3-6.37,11.69,11.69,0,0,1,9.14,0,12.13,12.13,0,0,1,6.36,6.37,11.72,11.72,0,0,1,0,9.15,12,12,0,0,1-6.33,6.28,12.13,12.13,0,0,1-9.17,0,11.79,11.79,0,0,1-3.75-2.52,11.51,11.51,0,0,1-3.46-8.39Zm3.2,0a8.86,8.86,0,0,0,.66,3.44,8.7,8.7,0,0,0,1.85,2.8,9,9,0,0,0,2.75,1.9,8.6,8.6,0,0,0,6.75,0,8.75,8.75,0,0,0,2.72-1.89,8.9,8.9,0,0,0,1.84-2.8,9.14,9.14,0,0,0,0-6.87,9.16,9.16,0,0,0-1.84-2.83,8.27,8.27,0,0,0-2.75-1.92,8.38,8.38,0,0,0-3.38-.69,8.24,8.24,0,0,0-3.4.7,8.61,8.61,0,0,0-4.56,4.75A9.14,9.14,0,0,0,86.44,139.29Z"/><path class="cls-1" d="M132.12,151.57l-17.88-18.13.89.22.07,17.17h-3.11V127h.16l17.66,18.21-.7-.17-.07-17.33h3.11v23.86Z"/><path class="cls-1" d="M137.14,127.71h15.38v3h-6.2v20.15h-3.1V130.68h-6.08Z"/><path class="cls-1" d="M157.45,127.71h15v3H160.55v7h10.66v3H160.55v7.13h12.38v3H157.45Z"/><path class="cls-1" d="M178.31,150.83V127h0l12.12,17.24-1.31-.28,12.12-17h0v23.86H198.2V134l.23,1.57-8.7,12.35h-.07l-8.86-12.35.51-1.44v16.69Z"/><path class="cls-1" d="M214.13,127.71a9.94,9.94,0,0,1,4.32.85,6.29,6.29,0,0,1,2.77,2.44,7.33,7.33,0,0,1,1,3.88,9.26,9.26,0,0,1-.41,2.7,6.92,6.92,0,0,1-1.33,2.4,6.55,6.55,0,0,1-2.38,1.72,8.79,8.79,0,0,1-3.59.66h-3.42v8.47H208V127.71Zm.32,11.61a5.31,5.31,0,0,0,2.27-.43,3.66,3.66,0,0,0,1.41-1.14,4.93,4.93,0,0,0,.74-1.44,4.7,4.7,0,0,0,.22-1.37,5.07,5.07,0,0,0-.22-1.46,3.64,3.64,0,0,0-.76-1.37,4,4,0,0,0-1.37-1,5,5,0,0,0-2.1-.4h-3.58v8.64Z"/><path class="cls-1" d="M225.55,139.29a11.57,11.57,0,0,1,.91-4.54,12.11,12.11,0,0,1,6.3-6.37,11.69,11.69,0,0,1,9.14,0,12.28,12.28,0,0,1,3.79,2.57,12.15,12.15,0,0,1,2.57,3.8,11.72,11.72,0,0,1,0,9.15,12,12,0,0,1-6.33,6.28,11.51,11.51,0,0,1-4.57.91,11.81,11.81,0,0,1-10.9-7.15A11.83,11.83,0,0,1,225.55,139.29Zm3.2,0a8.86,8.86,0,0,0,.66,3.44,8.7,8.7,0,0,0,1.85,2.8,9,9,0,0,0,2.75,1.9,8.6,8.6,0,0,0,6.75,0,8.63,8.63,0,0,0,2.72-1.89,8.9,8.9,0,0,0,1.84-2.8,9.14,9.14,0,0,0,0-6.87,9.16,9.16,0,0,0-1.84-2.83,8.17,8.17,0,0,0-2.75-1.92,8.62,8.62,0,0,0-6.78,0,8.61,8.61,0,0,0-4.56,4.75A9.14,9.14,0,0,0,228.75,139.29Z"/><path class="cls-1" d="M260.55,127.71a11.12,11.12,0,0,1,3.24.46,7.49,7.49,0,0,1,2.59,1.38,6.21,6.21,0,0,1,1.73,2.25,7.18,7.18,0,0,1,.63,3.08,9.35,9.35,0,0,1-.4,2.68,6.57,6.57,0,0,1-1.32,2.38,6.4,6.4,0,0,1-2.4,1.73,9.09,9.09,0,0,1-3.69.66h-3.42v8.5H254.4V127.71Zm.32,11.61a5.6,5.6,0,0,0,2.28-.41,3.81,3.81,0,0,0,1.43-1.08,4.23,4.23,0,0,0,.73-1.39,4.91,4.91,0,0,0,.23-1.44,4.62,4.62,0,0,0-.24-1.44,4.45,4.45,0,0,0-.77-1.39,3.94,3.94,0,0,0-1.38-1.07,4.58,4.58,0,0,0-2.06-.42h-3.58v8.64Zm3.8,1.79,6.05,9.72h-3.58L261,141.21Z"/><path class="cls-1" d="M273.18,150.83l10.08-24.08h.19l10.11,24.08H290l-7.55-19.22,2.21-1.44-8.42,20.66Zm5.92-8.76h8.6l1,2.69H278.2Z"/><path class="cls-1" d="M304.05,127.71a11.19,11.19,0,0,1,3.25.46,7.58,7.58,0,0,1,2.59,1.38,6.29,6.29,0,0,1,1.72,2.25,7.18,7.18,0,0,1,.63,3.08,9.35,9.35,0,0,1-.4,2.68,6.7,6.7,0,0,1-1.31,2.38,6.57,6.57,0,0,1-2.4,1.73,9.14,9.14,0,0,1-3.7.66H301v8.5h-3.1V127.71Zm.32,11.61a5.65,5.65,0,0,0,2.29-.41,3.77,3.77,0,0,0,1.42-1.08,4.25,4.25,0,0,0,.74-1.39A4.89,4.89,0,0,0,309,135a4.62,4.62,0,0,0-.24-1.44,4.45,4.45,0,0,0-.77-1.39,4,4,0,0,0-1.37-1.07,4.66,4.66,0,0,0-2.07-.42H301v8.64Zm3.81,1.79,6,9.72h-3.58l-6.17-9.62Z"/><path class="cls-1" d="M323.88,143.13l-8.57-15.42h3.8L326,140.47l-1,.06,6.82-12.82h3.77L327,143.13v7.7h-3.1Z"/><path class="cls-1" d="M350,127.71h3.1v23.12H350Z"/><path class="cls-1" d="M379.73,151.57l-17.88-18.13.89.22.07,17.17H359.7V127h.16l17.66,18.21-.7-.17-.07-17.33h3.11v23.86Z"/><path class="cls-1" d="M386.48,150.83V127.71h6.3a14.58,14.58,0,0,1,5.85,1,10.46,10.46,0,0,1,3.89,2.78,11.21,11.21,0,0,1,2.16,3.82,13.54,13.54,0,0,1,.67,4.19,11.57,11.57,0,0,1-.91,4.71,10.62,10.62,0,0,1-2.5,3.55,11,11,0,0,1-3.64,2.25,12,12,0,0,1-4.37.78Zm3.1-3h3.74a10.16,10.16,0,0,0,3.5-.58,8.13,8.13,0,0,0,2.82-1.66,7.44,7.44,0,0,0,1.87-2.67,10.23,10.23,0,0,0,0-7.36,7.8,7.8,0,0,0-1.92-2.7,8.11,8.11,0,0,0-2.75-1.64,9.11,9.11,0,0,0-3.2-.57h-4Z"/><path class="cls-1" d="M410.56,127.71h3.11v23.12h-3.11Z"/><path class="cls-1" d="M418,150.83l10.07-24.08h.19l10.11,24.08h-3.55l-7.55-19.22,2.21-1.44-8.41,20.66Zm5.91-8.76h8.61l1,2.69H423Z"/><path class="cls-1" d="M462.77,151.57l-17.88-18.13.89.22.06,17.17h-3.1V127h.16l17.66,18.21-.71-.17-.06-17.33h3.11v23.86Z"/><path class="cls-1" d="M497.73,148.85a5.89,5.89,0,0,1-1.34.82,16.23,16.23,0,0,1-1.91.72,18.37,18.37,0,0,1-2.13.51,11.63,11.63,0,0,1-2.07.19,14,14,0,0,1-5-.86,11.39,11.39,0,0,1-3.82-2.4,10.35,10.35,0,0,1-2.41-3.62,11.81,11.81,0,0,1-.84-4.47,13.5,13.5,0,0,1,.95-5.22,11.31,11.31,0,0,1,2.57-3.85,10.82,10.82,0,0,1,3.79-2.4,12.58,12.58,0,0,1,4.53-.82,14.47,14.47,0,0,1,3.77.47,12.38,12.38,0,0,1,3,1.23l-1,2.84a13,13,0,0,0-1.62-.68,12.85,12.85,0,0,0-1.93-.54,8.27,8.27,0,0,0-1.83-.22,10.59,10.59,0,0,0-3.72.63,8.22,8.22,0,0,0-2.85,1.79,7.89,7.89,0,0,0-1.84,2.82,10,10,0,0,0-.64,3.69,9,9,0,0,0,.64,3.44,7.75,7.75,0,0,0,1.84,2.72,8.26,8.26,0,0,0,2.83,1.74,10.31,10.31,0,0,0,3.65.61,11.88,11.88,0,0,0,2.3-.23,5.74,5.74,0,0,0,1.95-.7v-4.54H490v-3h7.71Z"/><path class="cls-1" d="M503.65,127.71h3.1v23.12h-3.1Z"/><path class="cls-1" d="M533.43,151.57l-17.89-18.13.9.22.06,17.17h-3.1V127h.16l17.66,18.21-.71-.17-.06-17.33h3.1v23.86Z"/></svg>